<?xml version="1.0" encoding="UTF-8"?>
<svg version="1.1" xmlns="http://www.w3.org/2000/svg" width="140" height="50">
<path d="M0 0 C10.93286835 -0.6277245 10.93286835 -0.6277245 15.1875 1.875 C18.0497773 5.23077339 18.27475608 7.54319268 18.2265625 11.9609375 C17.90314628 14.87168348 16.79339425 16.72376884 15 19 C12.01405576 20.49297212 9.29146376 20.11755228 6 20 C5.34 19.67 4.68 19.34 4 19 C4 21.64 4 24.28 4 27 C2.35 26.67 0.7 26.34 -1 26 C-1.02892857 22.04168191 -1.04677427 18.08339083 -1.0625 14.125 C-1.07087891 12.99707031 -1.07925781 11.86914062 -1.08789062 10.70703125 C-1.09111328 9.63066406 -1.09433594 8.55429687 -1.09765625 7.4453125 C-1.10289307 6.45031738 -1.10812988 5.45532227 -1.11352539 4.43017578 C-1 2 -1 2 0 0 Z M4 6 C3.57551193 10.70490566 3.57551193 10.70490566 5.1875 15 C7.02978871 16.22336939 7.02978871 16.22336939 9.5625 15.875 C12.3261611 15.15610832 12.3261611 15.15610832 14 12 C13.6758631 8.67759676 13.39223697 7.39223697 11 5 C7.19988141 4.48207372 7.19988141 4.48207372 4 6 Z " fill="#FDFDFD" transform="translate(117,16)"/>
<path d="M0 0 C1.48831242 0.00667405 2.97660807 0.01863442 4.46484375 0.03515625 C5.22345703 0.03966797 5.98207031 0.04417969 6.76367188 0.04882812 C8.64326246 0.06064945 10.52281274 0.07858547 12.40234375 0.09765625 C12.40234375 1.41765625 12.40234375 2.73765625 12.40234375 4.09765625 C6.46234375 4.59265625 6.46234375 4.59265625 0.40234375 5.09765625 C0.40234375 6.74765625 0.40234375 8.39765625 0.40234375 10.09765625 C4.03234375 10.42765625 7.66234375 10.75765625 11.40234375 11.09765625 C11.40234375 12.41765625 11.40234375 13.73765625 11.40234375 15.09765625 C5.95734375 15.59265625 5.95734375 15.59265625 0.40234375 16.09765625 C0.40234375 17.74765625 0.40234375 19.39765625 0.40234375 21.09765625 C4.69234375 21.42765625 8.98234375 21.75765625 13.40234375 22.09765625 C13.40234375 23.41765625 13.40234375 24.73765625 13.40234375 26.09765625 C7.46234375 26.09765625 1.52234375 26.09765625 -4.59765625 26.09765625 C-4.62448075 21.95178043 -4.6444094 17.80607587 -4.66015625 13.66015625 C-4.66853516 12.47615234 -4.67691406 11.29214844 -4.68554688 10.07226562 C-4.68876953 8.94755859 -4.69199219 7.82285156 -4.6953125 6.6640625 C-4.70054932 5.62193604 -4.70578613 4.57980957 -4.71118164 3.50610352 C-4.52813894 -0.37715725 -4.04822889 0.10988678 0 0 Z " fill="#FAFAFA" transform="translate(12.59765625,9.90234375)"/>
<path d="M0 0 C3.80971571 2.44396857 5.66971058 3.85499667 6.9375 8.25 C6.958125 9.1575 6.97875 10.065 7 11 C6 12 6 12 3.05859375 12.09765625 C1.26615234 12.08025391 1.26615234 12.08025391 -0.5625 12.0625 C-2.35880859 12.04896484 -2.35880859 12.04896484 -4.19140625 12.03515625 C-5.11824219 12.02355469 -6.04507813 12.01195312 -7 12 C-6.01 13.485 -6.01 13.485 -5 15 C-2.5 15.41666667 -2.5 15.41666667 0 15 C0.66 14.34 1.32 13.68 2 13 C2.99 13 3.98 13 5 13 C4.6875 15.375 4.6875 15.375 4 18 C0.30279853 20.46480098 -2.71155966 20.7842673 -7 20 C-10 18.0625 -10 18.0625 -12 15 C-12.95482759 10.32725969 -12.66302995 7.06084792 -10.125 3 C-6.75796187 -0.16897706 -4.59370053 -0.53004237 0 0 Z M-7 6 C-7 6.66 -7 7.32 -7 8 C-4.03 8 -1.06 8 2 8 C0.71034824 6.62437146 -0.62689293 5.29233607 -2 4 C-4.32357511 3.81509993 -4.32357511 3.81509993 -7 6 Z " fill="#FDFDFD" transform="translate(74,16)"/>
<path d="M0 0 C1.32 0 2.64 0 4 0 C4.04898438 1.02480469 4.09796875 2.04960937 4.1484375 3.10546875 C4.22351071 4.4661706 4.29905655 5.82684644 4.375 7.1875 C4.4059375 7.86103516 4.436875 8.53457031 4.46875 9.22851562 C4.69932567 13.16751667 5.07859443 16.51786227 7 20 C9.90351124 21.16448881 9.90351124 21.16448881 13 21 C15.05812891 19.65157071 15.78315864 18.66780855 16.5390625 16.33984375 C17.16697553 13.15238691 17.35245124 9.99075236 17.5625 6.75 C17.64628906 5.48671875 17.73007813 4.2234375 17.81640625 2.921875 C17.90728516 1.47554687 17.90728516 1.47554687 18 0 C19.32 0 20.64 0 22 0 C22.08172936 2.5215021 22.14083373 5.04029917 22.1875 7.5625 C22.21263672 8.26697266 22.23777344 8.97144531 22.26367188 9.69726562 C22.34496682 15.57759962 21.29535418 20.36459335 17.3125 24.9375 C13.88378287 26.51285652 10.65859572 26.66189306 7 26 C3.42516389 23.8240128 1.58099649 21.82915419 0 18 C-0.22705078 15.89355469 -0.22705078 15.89355469 -0.1953125 13.671875 C-0.18886719 12.87265625 -0.18242188 12.0734375 -0.17578125 11.25 C-0.15902344 10.425 -0.14226562 9.6 -0.125 8.75 C-0.11597656 7.90953125 -0.10695313 7.0690625 -0.09765625 6.203125 C-0.07415817 4.13529396 -0.03828908 2.06761005 0 0 Z " fill="#FDFDFD" transform="translate(91,10)"/>
<path d="M0 0 C3.58226199 2.76618455 4.86303973 4.26979745 5.70703125 8.76953125 C5.76615982 10.11634866 5.80088987 11.46443526 5.8125 12.8125 C5.83763672 13.50537109 5.86277344 14.19824219 5.88867188 14.91210938 C5.94713263 16.60747122 5.97653047 18.30379287 6 20 C3.72975032 20.08097324 1.45867925 20.13917704 -0.8125 20.1875 C-2.70935547 20.23970703 -2.70935547 20.23970703 -4.64453125 20.29296875 C-8 20 -8 20 -9.92578125 18.67578125 C-11.60776504 16.05188653 -11.37899431 14.03195448 -11 11 C-10 9.1875 -10 9.1875 -8 8 C-5.31884069 7.46059517 -2.7366901 7.22431886 0 7 C-2.57213134 5.38050989 -3.67669159 4.95591249 -6.75 5.375 C-7.86375 5.684375 -7.86375 5.684375 -9 6 C-9.33 4.68 -9.66 3.36 -10 2 C-6.58459721 -0.10178633 -3.97748585 -0.56821226 0 0 Z M-7 12 C-6.67 13.32 -6.34 14.64 -6 16 C-4.35 16 -2.7 16 -1 16 C-0.34 14.68 0.32 13.36 1 12 C-3.10223585 10.98459888 -3.10223585 10.98459888 -7 12 Z " fill="#FDFDFD" transform="translate(38,16)"/>
<path d="M0 0 C0.33 1.32 0.66 2.64 1 4 C-2.47823115 5.15941038 -4.45895578 4.70820884 -8 4 C-8 4.66 -8 5.32 -8 6 C-7.15115234 6.30744141 -7.15115234 6.30744141 -6.28515625 6.62109375 C-5.55167969 6.89050781 -4.81820312 7.15992188 -4.0625 7.4375 C-3.33160156 7.70433594 -2.60070312 7.97117187 -1.84765625 8.24609375 C0 9 0 9 1 10 C1.25 13.4375 1.25 13.4375 1 17 C-2.122002 19.08133467 -2.93266989 19.2737822 -6.5 19.25 C-7.66015625 19.25773437 -7.66015625 19.25773437 -8.84375 19.265625 C-11 19 -11 19 -14 17 C-13.67 15.68 -13.34 14.36 -13 13 C-9.7 13.66 -6.4 14.32 -3 15 C-3 14.01 -3 13.02 -3 12 C-5.01822917 11.54427083 -7.03645833 11.08854167 -9.0546875 10.6328125 C-11 10 -11 10 -13 8 C-13.42499738 4.67085389 -13.59769154 2.80558425 -11.5625 0.0625 C-7.64726537 -1.56088997 -4.09325725 -0.72594092 0 0 Z " fill="#FDFDFD" transform="translate(59,17)"/>
</svg>
